
<svg  width="0" height="0" version="1.1" xmlns="http://www.w3.org/2000/svg" xmlns:xlink="http://www.w3.org/1999/xlink">
<defs>
<symbol id="icon-balance-scale" viewBox="0 0 34 28">
<title>balance-scale</title>
<path class="path1" d="M27 7l-6 11h12zM7 7l-6 11h12zM19.828 4q-0.219 0.625-0.711 1.117t-1.117 0.711v20.172h9.5q0.219 0 0.359 0.141t0.141 0.359v1q0 0.219-0.141 0.359t-0.359 0.141h-21q-0.219 0-0.359-0.141t-0.141-0.359v-1q0-0.219 0.141-0.359t0.359-0.141h9.5v-20.172q-0.625-0.219-1.117-0.711t-0.711-1.117h-7.672q-0.219 0-0.359-0.141t-0.141-0.359v-1q0-0.219 0.141-0.359t0.359-0.141h7.672q0.328-0.891 1.094-1.445t1.734-0.555 1.734 0.555 1.094 1.445h7.672q0.219 0 0.359 0.141t0.141 0.359v1q0 0.219-0.141 0.359t-0.359 0.141h-7.672zM17 4.25q0.516 0 0.883-0.367t0.367-0.883-0.367-0.883-0.883-0.367-0.883 0.367-0.367 0.883 0.367 0.883 0.883 0.367zM34 18q0 1.141-0.727 2.047t-1.836 1.422-2.258 0.773-2.18 0.258-2.18-0.258-2.258-0.773-1.836-1.422-0.727-2.047q0-0.172 0.547-1.266t1.437-2.727 1.672-3.055 1.594-2.875 0.875-1.563q0.281-0.516 0.875-0.516t0.875 0.516q0.063 0.109 0.875 1.563t1.594 2.875 1.672 3.055 1.437 2.727 0.547 1.266zM14 18q0 1.141-0.727 2.047t-1.836 1.422-2.258 0.773-2.18 0.258-2.18-0.258-2.258-0.773-1.836-1.422-0.727-2.047q0-0.172 0.547-1.266t1.437-2.727 1.672-3.055 1.594-2.875 0.875-1.563q0.281-0.516 0.875-0.516t0.875 0.516q0.063 0.109 0.875 1.563t1.594 2.875 1.672 3.055 1.437 2.727 0.547 1.266z"></path>
</symbol>
<symbol id="icon-pencil2" viewBox="0 0 32 32">
<title>pencil2</title>
<path class="path1" d="M12 20l4-2 14-14-2-2-14 14-2 4zM9.041 27.097c-0.989-2.085-2.052-3.149-4.137-4.137l3.097-8.525 4-2.435 12-12h-6l-12 12-6 20 20-6 12-12v-6l-12 12-2.435 4z"></path>
</symbol>
<symbol id="icon-clipboard" viewBox="0 0 32 32">
<title>clipboard</title>
<path class="path1" d="M29 4h-9c0-2.209-1.791-4-4-4s-4 1.791-4 4h-9c-0.552 0-1 0.448-1 1v26c0 0.552 0.448 1 1 1h26c0.552 0 1-0.448 1-1v-26c0-0.552-0.448-1-1-1zM16 2c1.105 0 2 0.895 2 2s-0.895 2-2 2c-1.105 0-2-0.895-2-2s0.895-2 2-2zM28 30h-24v-24h4v3c0 0.552 0.448 1 1 1h14c0.552 0 1-0.448 1-1v-3h4v24z"></path>
<path class="path2" d="M14 26.828l-6.414-7.414 1.828-1.828 4.586 3.586 8.586-7.586 1.829 1.828z"></path>
</symbol>
<symbol id="icon-cross" viewBox="0 0 32 32">
<title>cross</title>
<path class="path1" d="M31.708 25.708c-0-0-0-0-0-0l-9.708-9.708 9.708-9.708c0-0 0-0 0-0 0.105-0.105 0.18-0.227 0.229-0.357 0.133-0.356 0.057-0.771-0.229-1.057l-4.586-4.586c-0.286-0.286-0.702-0.361-1.057-0.229-0.13 0.048-0.252 0.124-0.357 0.228 0 0-0 0-0 0l-9.708 9.708-9.708-9.708c-0-0-0-0-0-0-0.105-0.104-0.227-0.18-0.357-0.228-0.356-0.133-0.771-0.057-1.057 0.229l-4.586 4.586c-0.286 0.286-0.361 0.702-0.229 1.057 0.049 0.13 0.124 0.252 0.229 0.357 0 0 0 0 0 0l9.708 9.708-9.708 9.708c-0 0-0 0-0 0-0.104 0.105-0.18 0.227-0.229 0.357-0.133 0.355-0.057 0.771 0.229 1.057l4.586 4.586c0.286 0.286 0.702 0.361 1.057 0.229 0.13-0.049 0.252-0.124 0.357-0.229 0-0 0-0 0-0l9.708-9.708 9.708 9.708c0 0 0 0 0 0 0.105 0.105 0.227 0.18 0.357 0.229 0.356 0.133 0.771 0.057 1.057-0.229l4.586-4.586c0.286-0.286 0.362-0.702 0.229-1.057-0.049-0.13-0.124-0.252-0.229-0.357z"></path>
</symbol>
<symbol id="icon-wallet" viewBox="0 0 32 32">
<title>wallet</title>
<path class="path1" d="M16 20c0-1.105 0.895-2 2-2s2 0.895 2 2c0 1.105-0.895 2-2 2s-2-0.895-2-2zM29.001 13c-0.001 0-0.001 0 0 0l-0.001-6v-3c0-1.657-1.344-3-3-3h-20.5c-3.033 0-5.5 2.468-5.5 5.5v20c0 3.032 2.467 5.5 5.5 5.5h18c3.032 0 5.5-2.468 5.5-5.5v-1.5c0 0 0 0 0.001 0 3.998-3.001 3.998-8.999 0-12zM5.5 3h20.5c0.551 0 1 0.448 1 1v6.184c-0.314-0.112-0.648-0.184-1-0.184h-0.001v-5c0-0.553-0.448-1-1-1h-21c-0.552 0-1 0.447-1 1v3.943c-0.617-0.631-0.999-1.491-0.999-2.443 0-1.933 1.566-3.5 3.5-3.5zM24.999 6h-21v-1h21v1zM24.999 7v1h-21v-1h21zM24.999 9v1h-19.499c-0.54 0-1.044-0.132-1.5-0.35v-0.65h20.999zM27 26.5c0 1.933-1.567 3.5-3.5 3.5h-18c-1.934 0-3.5-1.567-3.5-3.5v-15.761c0.951 0.787 2.171 1.261 3.5 1.261h20.5c0.551 0 1 0.448 1 1v2h-9c-2.762 0-5 2.238-5 5s2.239 5 5 5h9v1.5zM28.277 23h-10.277c-1.654 0-3-1.346-3-3s1.346-3 3-3h9c0.617-0.008 1.229-0.307 1.602-0.804 0.104-0.14 0.185-0.297 0.25-0.461 0.009-0.022 0.025-0.039 0.033-0.062 0.719 0.943 1.115 2.099 1.115 3.327 0 1.538-0.621 2.965-1.723 4z"></path>
</symbol>
</defs>
</svg>
